<mxfile host="app.diagrams.net" modified="2024-06-28T10:54:45.670Z" agent="Mozilla/5.0 (X11; Linux x86_64) AppleWebKit/537.36 (KHTML, like Gecko) Chrome/124.0.0.0 Safari/537.36" version="23.0.2" etag="bf5oKhViX37gXop8mSXB" type="github">
  <diagram name="Page-1" id="6ODIM1d22YWBT5-OP8Dm">
    <mxGraphModel>
      <root>
        <mxCell id="0" />
        <mxCell id="1" parent="0" />
      </root>
    </mxGraphModel>
  </diagram>
</mxfile>
